<?xml version="1.0" encoding="utf-8"?>
<!-- Generator: Adobe Illustrator 24.0.2, SVG Export Plug-In . SVG Version: 6.00 Build 0)  -->
<svg version="1.1" id="Layer_1" xmlns="http://www.w3.org/2000/svg" xmlns:xlink="http://www.w3.org/1999/xlink" x="0px" y="0px"
	 viewBox="0 0 708.7 268" style="enable-background:new 0 0 708.7 268;" xml:space="preserve">
<style type="text/css">
	.st0{fill:#E6B222;}
	.st1{fill:#6D6E71;}
</style>
<g>
	<g>
		<path class="st0" d="M240.4,70.1c-16.3,0-29.6,12.5-31,28.4h-62.9c28-39.1,53.4-41.3,74.6-33.3c0.4-2.3,1-4.6,2-7
			c8.7-22.3,27.6-41.1,77.8-32.7L257.1,75C252.3,71.9,246.5,70.1,240.4,70.1L240.4,70.1z"/>
		<path class="st0" d="M283.3,101.3c16.4,10.8,27.7,31,20.8,72l-42.5-49.5c6-5.7,9.8-13.7,9.8-22.6c0-9.1-3.9-17.2-10.1-22.9
			l43.3-48.9C311.5,70.5,300,90.7,283.3,101.3L283.3,101.3z"/>
		<path class="st0" d="M240.4,132.3c6.3,0,12.2-1.9,17.1-5.1l42.7,49.8c-50,8.2-68.9-10.6-77.5-32.8c-0.9-2.3-1.5-4.6-1.9-6.8
			c-21.1,7.8-46.3,5.3-74.1-33.5h62.9C210.8,119.8,224.1,132.3,240.4,132.3L240.4,132.3z"/>
		<path class="st0" d="M237.6,75.2c14.3-1.8,27.4,8.4,29.1,22.7c1.8,14.3-8.4,27.4-22.7,29.1c-14.3,1.8-27.4-8.4-29.1-22.7
			C213.2,90.1,223.3,77,237.6,75.2L237.6,75.2z"/>
		<path class="st0" d="M362.3,55.1c0-17.3-14-31.4-31.4-31.4h-14.8v155.1H331c17.3,0,31.4-14,31.4-31.4V55.1z"/>
		<path class="st0" d="M457,82.1c-24.5,3.1-28.8,34.6-28.8,34.6h27.2h53.2v22.6h-58.8c-6.7,0-12.8-0.9-18.4-2.7
			c-5.6-1.8-10.4-4.3-14.5-7.6c-4.1-3.3-7.3-7.2-9.5-11.7c-2.2-4.6-3.4-9.6-3.4-15.2c0-5.6,1.2-10.7,3.5-15.2
			c2.3-4.6,5.5-8.6,9.6-12c4.1-3.4,9-6,14.5-7.9c5.6-1.9,11.6-2.8,18.1-2.8h80.2l0,0c0,0,0.1,0,0.1,0c35.6,0,31.2-40.5,31.2-40.5
			s-0.1,0-0.2,0.1l0.1-0.1H449.8c-13.5,0-26,1.8-37.4,5.5c-11.5,3.6-21.4,8.8-29.6,15.6c-4.4,3.6-8.3,7.6-11.7,11.9v87.6
			c3.4,4.5,7.3,8.6,11.7,12.4c8.3,7.1,18.2,12.6,29.6,16.6c11.5,4,23.9,6,37.4,6h106.7V82.1h-98.3H457z"/>
	</g>
	<g>
		<path class="st1" d="M113.9,231.1v-1.3c2.7-0.3,3.1-0.5,3.1-3.6V212c0-3.2-0.3-3.4-3.1-3.7V207H125v1.3c-2.7,0.3-3.1,0.5-3.1,3.7
			v14.2c0,3.1,0.3,3.4,3.1,3.6v1.3H113.9z"/>
		<path class="st1" d="M152.2,220.9c-1.9,0.4-2.1,0.5-2.1,3v2.9c0,1.3,0,2.5,0.2,3.5c-2.2,0.6-5.5,1.4-8.5,1.4
			c-8.6,0-14.2-4.9-14.2-12.3c0-8.5,6.9-12.9,14.7-12.9c3,0,5.9,0.7,7.2,1c0.1,1.3,0.3,3.2,0.6,6.2l-1.4,0.3
			c-0.9-4.1-3.7-5.9-7.2-5.9c-4.5,0-8.3,4-8.3,10.7c0,5.6,2.7,11.4,8.8,11.4c0.7,0,1.6-0.1,2.1-0.4c0.6-0.3,0.9-0.9,0.9-2v-3.5
			c0-2.6-0.2-2.9-4.1-3.2v-1.3h11.1V220.9z"/>
		<path class="st1" d="M162.6,231.1v-1.3c2.7-0.3,3.1-0.5,3.1-3.6V212c0-3.2-0.3-3.4-3.1-3.7V207h11.1v1.3c-2.7,0.3-3.1,0.5-3.1,3.7
			v14.2c0,3.1,0.3,3.4,3.1,3.6v1.3H162.6z"/>
		<path class="st1" d="M202.1,208.3c-2,0.1-2.8,0.6-3,2.3c-0.1,1.2-0.3,2.9-0.3,6.2v14.7H197L181.6,213h-0.1v8.4
			c0,3.3,0.2,4.9,0.3,6c0.2,1.6,0.8,2.3,3.6,2.5v1.3h-9.1v-1.3c2.1-0.1,2.9-0.7,3.1-2.3c0.1-1.2,0.4-2.9,0.4-6.1v-7.8
			c0-2.4-0.1-3.1-0.8-4c-0.7-0.9-1.5-1.2-3.1-1.3V207h6.9l14.2,16.3h0.1v-6.5c0-3.3-0.2-5-0.3-6.1c-0.2-1.6-1-2.2-3.7-2.4V207h9.1
			V208.3z"/>
		<path class="st1" d="M224.3,213.4c-0.4-1.9-1-3.2-1.6-3.8c-0.6-0.7-1.6-0.9-3.8-0.9h-1.7v17.6c0,3.2,0.4,3.4,3.6,3.6v1.3h-12.1
			v-1.3c3.1-0.3,3.5-0.5,3.5-3.6v-17.6h-1.3c-3,0-3.7,0.4-4.3,1c-0.6,0.6-1.1,1.9-1.6,3.8h-1.3c0.1-2.7,0.4-5.4,0.4-7.3h0.9
			c0.6,0.9,1.1,0.9,2.1,0.9h14.9c1,0,1.5-0.2,2.2-0.9h0.9c0,1.6,0.2,4.8,0.4,7.2L224.3,213.4z"/>
		<path class="st1" d="M247.7,225c-0.2,1.7-1,5.1-1.3,6.2h-18.9v-1.3c3.2-0.3,3.5-0.5,3.5-3.6v-14.3c0-3.2-0.4-3.4-3-3.6V207h17.5
			c0,0.7,0.2,3.3,0.4,5.6l-1.3,0.2c-0.4-1.3-0.9-2.5-1.5-3.2c-0.6-0.7-1.6-0.9-3.7-0.9h-1.8c-1.4,0-1.5,0.1-1.5,1.3v7.9h2.5
			c3.1,0,3.6-0.2,4.1-2.8h1.3v7.5h-1.3c-0.5-2.7-1-2.8-4.1-2.8H236v6.4c0,1.7,0.1,2.7,0.9,3c0.7,0.3,1.9,0.4,3.3,0.4
			c1.9,0,3.2-0.3,4.1-1.2c0.7-0.8,1.4-2,2.1-3.6L247.7,225z"/>
		<path class="st1" d="M272.4,231.5c-0.2,0-0.7,0-1.1,0c-4.7-0.2-6.1-1.3-7.6-3.6c-1-1.5-2-3.5-3-5.5c-0.6-1.2-1.3-1.6-2.5-1.6h-0.7
			v5.4c0,3,0.4,3.4,3.2,3.7v1.3h-11.2v-1.3c2.8-0.3,3.2-0.6,3.2-3.7v-14.3c0-3-0.3-3.3-3-3.6V207H260c3.2,0,5.1,0.4,6.6,1.4
			c1.5,1,2.5,2.6,2.5,4.9c0,3.3-2.2,5-4.6,6.1c0.5,1.1,1.9,3.6,3,5.3c1.3,2,2.1,3.2,2.9,4c0.8,0.9,1.4,1.3,2.3,1.6L272.4,231.5z
			 M258.4,219.3c1.6,0,2.8-0.3,3.6-1c1.3-1,1.8-2.5,1.8-4.4c0-3.9-2.3-5.4-4.4-5.4c-0.9,0-1.4,0.1-1.7,0.4c-0.3,0.2-0.3,0.6-0.3,1.4
			v9.1H258.4z"/>
		<path class="st1" d="M299.5,208.3c-2,0.1-2.8,0.6-3,2.3c-0.1,1.2-0.3,2.9-0.3,6.2v14.7h-1.8L278.9,213h-0.1v8.4
			c0,3.3,0.2,4.9,0.3,6c0.2,1.6,0.8,2.3,3.6,2.5v1.3h-9.1v-1.3c2.1-0.1,2.9-0.7,3.1-2.3c0.1-1.2,0.4-2.9,0.4-6.1v-7.8
			c0-2.4-0.1-3.1-0.8-4c-0.7-0.9-1.5-1.2-3.1-1.3V207h6.9l14.2,16.3h0.1v-6.5c0-3.3-0.2-5-0.3-6.1c-0.2-1.6-1-2.2-3.7-2.4V207h9.1
			V208.3z"/>
		<path class="st1" d="M313.3,231.1v-1.3c2.2-0.3,2.4-0.8,1.8-2.4c-0.4-1.1-0.9-2.7-1.5-4.2h-7.1c-0.4,1.2-0.9,2.5-1.3,4
			c-0.5,1.8-0.4,2.3,2.3,2.6v1.3H299l0-1.3c2.5-0.3,2.9-0.7,4.1-3.8l7.6-19.1l1.9-0.5c2.4,6.5,4.7,13,7.1,19.4
			c1.3,3.3,1.7,3.8,4.1,4v1.3H313.3z M310.1,213.2H310c-1,2.7-2,5.4-2.9,8h5.8L310.1,213.2z"/>
		<path class="st1" d="M343.4,213.4c-0.4-1.9-1-3.2-1.6-3.8c-0.6-0.7-1.6-0.9-3.8-0.9h-1.7v17.6c0,3.2,0.4,3.4,3.6,3.6v1.3h-12.1
			v-1.3c3.1-0.3,3.5-0.5,3.5-3.6v-17.6h-1.3c-3,0-3.7,0.4-4.3,1c-0.6,0.6-1.1,1.9-1.6,3.8h-1.3c0.1-2.7,0.4-5.4,0.4-7.3h0.9
			c0.6,0.9,1.1,0.9,2.1,0.9h14.9c1,0,1.5-0.2,2.2-0.9h0.9c0,1.6,0.2,4.8,0.4,7.2L343.4,213.4z"/>
		<path class="st1" d="M347.1,231.1v-1.3c2.7-0.3,3.1-0.5,3.1-3.6V212c0-3.2-0.3-3.4-3.1-3.7V207h11.1v1.3c-2.7,0.3-3.1,0.5-3.1,3.7
			v14.2c0,3.1,0.3,3.4,3.1,3.6v1.3H347.1z"/>
		<path class="st1" d="M386.3,218.8c0,8-5.8,12.9-12.7,12.9c-7.4,0-12.6-5.5-12.6-12.6c0-6.4,4.5-12.7,13-12.7
			C380.7,206.5,386.3,211.5,386.3,218.8z M366.6,218.4c0,6.4,2.8,11.7,7.6,11.7c3.5,0,6.4-3.5,6.4-10.3c0-7.4-3-11.8-7.3-11.8
			C369.5,208,366.6,212,366.6,218.4z"/>
		<path class="st1" d="M414.2,208.3c-2,0.1-2.8,0.6-3,2.3c-0.1,1.2-0.3,2.9-0.3,6.2v14.7h-1.8L393.7,213h-0.1v8.4
			c0,3.3,0.2,4.9,0.3,6c0.2,1.6,0.8,2.3,3.6,2.5v1.3h-9.1v-1.3c2.1-0.1,2.9-0.7,3.1-2.3c0.1-1.2,0.4-2.9,0.4-6.1v-7.8
			c0-2.4-0.1-3.1-0.8-4c-0.7-0.9-1.5-1.2-3.1-1.3V207h6.9l14.2,16.3h0.1v-6.5c0-3.3-0.2-5-0.3-6.1c-0.2-1.6-1-2.2-3.7-2.4V207h9.1
			V208.3z"/>
		<path class="st1" d="M428,231.1v-1.3c2.2-0.3,2.4-0.8,1.8-2.4c-0.4-1.1-0.9-2.7-1.5-4.2h-7.1c-0.4,1.2-0.9,2.5-1.3,4
			c-0.5,1.8-0.4,2.3,2.3,2.6v1.3h-8.3l0-1.3c2.5-0.3,2.9-0.7,4.1-3.8l7.6-19.1l1.9-0.5c2.4,6.5,4.7,13,7.1,19.4
			c1.3,3.3,1.7,3.8,4.1,4v1.3H428z M424.8,213.2h-0.1c-1,2.7-2,5.4-2.9,8h5.8L424.8,213.2z"/>
		<path class="st1" d="M459.7,224.9c-0.3,1.6-1.1,5.3-1.4,6.3h-18.1v-1.3c3.2-0.3,3.6-0.5,3.6-3.6V212c0-3.2-0.4-3.4-3.2-3.7V207
			H452v1.3c-2.9,0.3-3.2,0.5-3.2,3.7v14.5c0,1.7,0.1,2.4,0.9,2.7c0.6,0.3,1.6,0.3,2.8,0.3c1.6,0,2.9-0.3,3.8-1.3
			c0.7-0.8,1.4-2,2.1-3.8L459.7,224.9z"/>
		<path class="st1" d="M494,220.9c-1.9,0.4-2.1,0.5-2.1,3v2.9c0,1.3,0,2.5,0.2,3.5c-2.2,0.6-5.5,1.4-8.5,1.4
			c-8.6,0-14.2-4.9-14.2-12.3c0-8.5,6.9-12.9,14.7-12.9c3,0,5.9,0.7,7.2,1c0.1,1.3,0.3,3.2,0.6,6.2l-1.4,0.3
			c-0.9-4.1-3.7-5.9-7.2-5.9c-4.5,0-8.3,4-8.3,10.7c0,5.6,2.7,11.4,8.8,11.4c0.7,0,1.6-0.1,2.1-0.4c0.6-0.3,0.9-0.9,0.9-2v-3.5
			c0-2.6-0.2-2.9-4.1-3.2v-1.3H494V220.9z"/>
		<path class="st1" d="M519.2,231.5c-0.2,0-0.7,0-1.1,0c-4.7-0.2-6.1-1.3-7.6-3.6c-1-1.5-2-3.5-3-5.5c-0.6-1.2-1.3-1.6-2.5-1.6h-0.7
			v5.4c0,3,0.4,3.4,3.2,3.7v1.3h-11.2v-1.3c2.8-0.3,3.2-0.6,3.2-3.7v-14.3c0-3-0.3-3.3-3-3.6V207h10.4c3.2,0,5.1,0.4,6.6,1.4
			c1.5,1,2.5,2.6,2.5,4.9c0,3.3-2.2,5-4.6,6.1c0.5,1.1,1.9,3.6,3,5.3c1.3,2,2.1,3.2,2.9,4c0.8,0.9,1.4,1.3,2.3,1.6L519.2,231.5z
			 M505.2,219.3c1.6,0,2.8-0.3,3.6-1c1.3-1,1.8-2.5,1.8-4.4c0-3.9-2.3-5.4-4.4-5.4c-0.9,0-1.4,0.1-1.7,0.4c-0.3,0.2-0.3,0.6-0.3,1.4
			v9.1H505.2z"/>
		<path class="st1" d="M545.7,218.8c0,8-5.8,12.9-12.7,12.9c-7.4,0-12.6-5.5-12.6-12.6c0-6.4,4.5-12.7,13-12.7
			C540.1,206.5,545.7,211.5,545.7,218.8z M526,218.4c0,6.4,2.8,11.7,7.6,11.7c3.5,0,6.4-3.5,6.4-10.3c0-7.4-3-11.8-7.3-11.8
			C529,208,526,212,526,218.4z"/>
		<path class="st1" d="M573.8,208.3c-2,0.1-3,0.9-3.2,2.2c-0.2,1.2-0.3,2.5-0.3,5.2v4c0,3.9-0.6,7.1-2.7,9.3
			c-1.7,1.8-4.2,2.7-6.9,2.7c-2.5,0-4.8-0.5-6.6-1.9c-2.1-1.6-3.1-4.4-3.1-8.7v-8.7c0-3.5-0.4-3.8-3.1-4V207h11.2v1.3
			c-2.7,0.3-3.1,0.5-3.1,4v8.1c0,5.6,2,8.8,6,8.8c4.4,0,6.4-3.3,6.4-9.5v-4c0-2.6-0.2-4-0.4-5.2c-0.2-1.3-1.1-2-3.6-2.2V207h9.3
			V208.3z"/>
		<path class="st1" d="M585.8,207c2.9,0,5.1,0.4,6.5,1.4c1.7,1.2,2.7,3,2.7,5.5c0,5-3.7,7.2-7.6,7.7c-0.6,0.1-1.2,0.1-1.6,0.1
			l-2.5-0.6v5.1c0,3.2,0.3,3.4,3.5,3.7v1.3h-11.6v-1.3c2.8-0.3,3.1-0.5,3.1-3.7V212c0-3.2-0.3-3.4-2.9-3.7V207H585.8z M583.3,219.6
			c0.4,0.2,1.2,0.4,2,0.4c1.4,0,4.3-1,4.3-6c0-4.2-2.4-5.6-4.6-5.6c-0.7,0-1.2,0.2-1.4,0.4c-0.2,0.2-0.3,0.6-0.3,1.2V219.6z"/>
	</g>
</g>
</svg>
